# xmcd CD database file
#
# Track frame offsets:
#	150
#	11690
#	34490
#	50672
#	68670
#	97452
#	112520
#	131675
#	148190
#	164412
#	180457
#	189115
#	209212
#	231047
#	247130
#
# Disc length: 3388 seconds
#
# Revision: 1
# Processed by: cddbd v1.5.1PL0 Copyright (c) Steve Scherf et al.
# Submitted via: CDex 1.51
#
DISCID=df0d3a0f
DTITLE=Yusa - Yusa
DYEAR=2002
DGENRE=world
TTITLE0=Tomando El Centro
TTITLE1=A Las Doce
TTITLE2=La Fabula
TTITLE3=Tienta Paredes
TTITLE4=Cuestion De Angulo
TTITLE5=La Partida
TTITLE6=La Numero 2
TTITLE7=Mares De Inocencia
TTITLE8=Todo O Casi Nada
TTITLE9=Cancion En Cuna Para Freya
TTITLE10=En Todas Las Esquinas
TTITLE11=Involucion
TTITLE12=Momentos
TTITLE13=Chiquichaca
TTITLE14=Flash
EXTD=YEAR: 2002
EXTT0=
EXTT1=
EXTT2=
EXTT3=
EXTT4=
EXTT5=
EXTT6=
EXTT7=
EXTT8=
EXTT9=
EXTT10=
EXTT11=
EXTT12=
EXTT13=
EXTT14=
PLAYORDER=
